<svg width="15" height="14" viewBox="0 0 15 14" fill="none" xmlns="http://www.w3.org/2000/svg">
<path d="M11.01 10.24C9.99989 10.9507 8.76993 11.3445 7.5 11.3636C3.36364 11.3636 1 7 1 7C1.73503 5.73558 2.75449 4.63088 3.99 3.76M6.25909 2.76728C6.66583 2.67939 7.08226 2.63546 7.5 2.63637C11.6364 2.63637 14 7 14 7C13.6413 7.61942 13.2135 8.20259 12.7236 8.74M8.75273 8.15637C8.59043 8.31714 8.39472 8.44609 8.17727 8.53552C7.95982 8.62496 7.72508 8.67305 7.48705 8.67693C7.24903 8.68081 7.0126 8.64039 6.79186 8.55809C6.57112 8.47579 6.37061 8.35329 6.20227 8.1979C6.03394 8.04252 5.90123 7.85743 5.81207 7.65367C5.72291 7.44991 5.67913 7.23167 5.68333 7.01195C5.68753 6.79224 5.73963 6.57555 5.83652 6.37483C5.93341 6.1741 6.0731 5.99345 6.24727 5.84364" stroke="grey" stroke-linecap="round" stroke-linejoin="round"/>
<path d="M1 1.00003L14 13" stroke="grey" stroke-linecap="round" stroke-linejoin="round"/>
</svg>
